<svg xmlns="http://www.w3.org/2000/svg" width="128" height="128" class="icon" viewBox="0 0 1024 1024"><path fill="#3DBF71" d="M512 0c282.752 0 512 229.248 512 512s-229.248 512-512 512S0 794.752 0 512 229.248 0 512 0zm-29.525 256L256 641.92l33.621 147.413 146.262-45.226 226.432-385.963L482.475 256zm264.192 496.213H482.475v37.12h264.192v-37.12zM297.856 655.83l104.96 59.179-85.504 26.71-19.456-85.889zm146.261-260.01L558.55 460.8 426.453 685.995 312.021 620.97l132.096-225.152zm52.48-89.387 114.432 65.024-33.621 56.875-114.39-65.024 33.58-56.875z"/></svg>